<?xml version="1.0" encoding="UTF-8" standalone="no"?>
<svg
   xmlns:dc="http://purl.org/dc/elements/1.1/"
   xmlns:cc="http://creativecommons.org/ns#"
   xmlns:rdf="http://www.w3.org/1999/02/22-rdf-syntax-ns#"
   xmlns:svg="http://www.w3.org/2000/svg"
   xmlns="http://www.w3.org/2000/svg"
   xmlns:sodipodi="http://sodipodi.sourceforge.net/DTD/sodipodi-0.dtd"
   xmlns:inkscape="http://www.inkscape.org/namespaces/inkscape"
   viewBox="0 0 128 128"
   version="1.1"
   id="svg12"
   sodipodi:docname="html5-original-wordmark.svg"
   inkscape:version="1.0.1 (3bc2e813f5, 2020-09-07)">
  <metadata
     id="metadata18">
    <rdf:RDF>
      <cc:Work
         rdf:about="">
        <dc:format>image/svg+xml</dc:format>
        <dc:type
           rdf:resource="http://purl.org/dc/dcmitype/StillImage" />
      </cc:Work>
    </rdf:RDF>
  </metadata>
  <defs
     id="defs16" />
  <sodipodi:namedview
     pagecolor="#ffffff"
     bordercolor="#666666"
     borderopacity="1"
     objecttolerance="10"
     gridtolerance="10"
     guidetolerance="10"
     inkscape:pageopacity="0"
     inkscape:pageshadow="2"
     inkscape:window-width="1324"
     inkscape:window-height="762"
     id="namedview14"
     showgrid="false"
     inkscape:zoom="5.7421875"
     inkscape:cx="64"
     inkscape:cy="22.204082"
     inkscape:window-x="0"
     inkscape:window-y="0"
     inkscape:window-maximized="0"
     inkscape:current-layer="svg12" />
  <path
     fill="#E44D26"
     d="M27.854 116.354l-8.043-90.211h88.378l-8.051 90.197-36.192 10.033z"
     id="path2" />
  <path
     fill="#F16529"
     d="M64 118.704l29.244-8.108 6.881-77.076H64z"
     id="path4" />
  <path
     fill="#EBEBEB"
     d="M64 66.978H49.359l-1.01-11.331H64V44.583H36.257l.264 2.969 2.72 30.489H64zm0 28.733l-.049.013-12.321-3.328-.788-8.823H39.735l1.55 17.372 22.664 6.292.051-.015z"
     id="path6" />
  <path
     d="M28.034 1.627h5.622v5.556H38.8V1.627h5.623v16.822H38.8v-5.633h-5.143v5.633h-5.623V1.627zm23.782 5.579h-4.95V1.627h15.525v5.579h-4.952v11.243h-5.623V7.206zm13.039-5.579h5.862l3.607 5.911 3.603-5.911h5.865v16.822h-5.601v-8.338l-3.867 5.981h-.098l-3.87-5.981v8.338h-5.502V1.627zm21.736 0h5.624v11.262h7.907v5.561H86.591V1.627z"
     id="path8"
     style="fill:#ffffff" />
  <path
     fill="#fff"
     d="M63.962 66.978v11.063h13.624L76.302 92.39l-12.34 3.331v11.51l22.682-6.286.166-1.87 2.6-29.127.27-2.97h-2.982zm0-22.395v11.064h26.725l.221-2.487.505-5.608.265-2.969z"
     id="path10" />
</svg>
