<?xml version="1.0" encoding="UTF-8" standalone="no"?>
<svg
   xmlns:dc="http://purl.org/dc/elements/1.1/"
   xmlns:cc="http://creativecommons.org/ns#"
   xmlns:rdf="http://www.w3.org/1999/02/22-rdf-syntax-ns#"
   xmlns:svg="http://www.w3.org/2000/svg"
   xmlns="http://www.w3.org/2000/svg"
   xmlns:sodipodi="http://sodipodi.sourceforge.net/DTD/sodipodi-0.dtd"
   xmlns:inkscape="http://www.inkscape.org/namespaces/inkscape"
   viewBox="0 0 128 128"
   version="1.1"
   id="svg4"
   sodipodi:docname="nextjs-original-wordmark.svg"
   inkscape:version="1.0.1 (3bc2e813f5, 2020-09-07)">
  <metadata
     id="metadata10">
    <rdf:RDF>
      <cc:Work
         rdf:about="">
        <dc:format>image/svg+xml</dc:format>
        <dc:type
           rdf:resource="http://purl.org/dc/dcmitype/StillImage" />
      </cc:Work>
    </rdf:RDF>
  </metadata>
  <defs
     id="defs8" />
  <sodipodi:namedview
     pagecolor="#ffffff"
     bordercolor="#666666"
     borderopacity="1"
     objecttolerance="10"
     gridtolerance="10"
     guidetolerance="10"
     inkscape:pageopacity="0"
     inkscape:pageshadow="2"
     inkscape:window-width="776"
     inkscape:window-height="480"
     id="namedview6"
     showgrid="false"
     inkscape:zoom="5.7421875"
     inkscape:cx="64"
     inkscape:cy="64"
     inkscape:window-x="0"
     inkscape:window-y="0"
     inkscape:window-maximized="0"
     inkscape:current-layer="svg4" />
  <path
     d="M30.2 45.9h24.1v1.9H32.4v14.4H53v1.9H32.4v15.8h22.2v1.9H30.2V45.9zm26.3 0h2.6l11.4 15.8L82 45.9l15.8-20-26 37.5 13.4 18.4h-2.7L70.4 65 58.2 81.8h-2.6l13.5-18.4-12.6-17.5zm29.7 1.9v-1.9h27.5v1.9H101v34h-2.2v-34H86.2zM0 45.9h2.7l38.2 56.8-15.8-20.9L2.3 48.6l-.1 33.2H0zm113.5 33.4c.5 0 .8-.3.8-.8s-.3-.8-.8-.8-.8.3-.8.8.4.8.8.8zm2.2-2.1c0 1.3 1 2.2 2.4 2.2 1.5 0 2.4-.9 2.4-2.5v-5.5h-1.2v5.5c0 .9-.4 1.3-1.2 1.3-.7 0-1.2-.4-1.2-1.1h-1.2zm6.3-.1c.1 1.4 1.2 2.3 3 2.3s3-.9 3-2.4c0-1.2-.7-1.8-2.2-2.2l-.9-.2c-1-.2-1.4-.6-1.4-1.1 0-.7.6-1.2 1.6-1.2.9 0 1.5.4 1.6 1.2h1.2c-.1-1.3-1.2-2.2-2.8-2.2-1.7 0-2.8.9-2.8 2.3 0 1.1.6 1.8 2 2.1l1 .2c1 .2 1.5.6 1.5 1.2 0 .7-.7 1.2-1.7 1.2s-1.8-.5-1.9-1.2H122z"
     id="path2"
     style="fill:#ffffff" />
</svg>
